<?xml version="1.0" encoding="UTF-8"?>
<svg width="16px" height="16px" viewBox="0 0 16 16" version="1.1" xmlns="http://www.w3.org/2000/svg" xmlns:xlink="http://www.w3.org/1999/xlink">
    <title>scheduled</title>
    <g id="scheduled" stroke="none" stroke-width="1" fill="none" fill-rule="evenodd">
        <path d="M7.83018868,-1.77635684e-15 C3.41191068,-1.77635684e-15 -0.169811321,3.581722 -0.169811321,8 C-0.169811321,12.418278 3.41191068,16 7.83018868,16 C12.2484667,16 15.8301887,12.418278 15.8301887,8 C15.8301887,5.87826808 14.987334,3.84343678 13.4870429,2.34314575 C11.9867519,0.842854723 9.9519206,-1.77635684e-15 7.83018868,-1.77635684e-15 Z M7.83018868,14.8571429 C4.04309325,14.8571429 0.973045822,11.7870954 0.973045822,8 C0.973045822,4.21290457 4.04309325,1.14285714 7.83018868,1.14285714 C11.6172841,1.14285714 14.6873315,4.21290457 14.6873315,8 C14.6873315,9.81862736 13.9648846,11.5627685 12.6789209,12.8487322 C11.3929572,14.134696 9.64881604,14.8571429 7.83018868,14.8571429 Z M13.5444744,8 C13.5444744,8.31559129 13.2886371,8.57142857 12.9730458,8.57142857 L7.83018868,8.57142857 C7.51459739,8.57142857 7.25876011,8.31559129 7.25876011,8 L7.25876011,2.85714286 C7.25876011,2.54155157 7.51459739,2.28571429 7.83018868,2.28571429 C8.14577996,2.28571429 8.40161725,2.54155157 8.40161725,2.85714286 L8.40161725,7.42857143 L12.9730458,7.42857143 C13.2886371,7.42857143 13.5444744,7.68440871 13.5444744,8 Z" id="Shape" fill="#067B00" fill-rule="nonzero"></path>
    </g>
</svg>